<svg xmlns="http://www.w3.org/2000/svg">
<defs>
<symbol id="arrow-up" viewBox="0 0 11 12"><path fill="currentColor" stroke="none" d="M4.513 3.238L1.653 6a.954.954 0 0 1-.691.262A.954.954 0 0 1 .272 6 .887.887 0 0 1 0 5.333c0-.27.09-.492.271-.666L4.81.286A.963.963 0 0 1 5.5 0a.96.96 0 0 1 .69.286l4.539 4.38c.18.175.271.397.271.667s-.09.492-.271.667a.954.954 0 0 1-.69.262A.954.954 0 0 1 9.347 6l-2.86-2.762v7.81c0 .27-.095.496-.285.679A.97.97 0 0 1 5.5 12a.977.977 0 0 1-.702-.274.903.903 0 0 1-.285-.678v-7.81z"/></symbol>
<symbol id="info" viewBox="0 0 16 16"><path fill="currentColor" stroke="none" d="M8 12a.775.775 0 0 0 .57-.23.771.771 0 0 0 .23-.57.778.778 0 0 0-.23-.57.772.772 0 0 0-.57-.23.772.772 0 0 0-.57.23.778.778 0 0 0-.23.57c0 .226.076.416.23.57A.767.767 0 0 0 8 12zm0-3.2a.775.775 0 0 0 .57-.23A.771.771 0 0 0 8.8 8V4.8a.772.772 0 0 0-.23-.57A.778.778 0 0 0 8 4a.77.77 0 0 0-.57.23.775.775 0 0 0-.23.57V8c0 .227.077.417.23.57.154.154.344.23.57.23zM8 16a7.785 7.785 0 0 1-3.12-.63 8.091 8.091 0 0 1-2.54-1.71 8.061 8.061 0 0 1-1.71-2.54A7.808 7.808 0 0 1 0 8c0-1.106.21-2.146.63-3.12a8.105 8.105 0 0 1 1.71-2.54A8.067 8.067 0 0 1 4.88.63 7.793 7.793 0 0 1 8 0c1.106 0 2.146.21 3.12.63a8.06 8.06 0 0 1 2.54 1.71 8.108 8.108 0 0 1 1.71 2.54c.422.974.632 2.014.63 3.12a7.844 7.844 0 0 1-.63 3.12 8.026 8.026 0 0 1-1.71 2.54 8.126 8.126 0 0 1-2.54 1.71A7.75 7.75 0 0 1 8 16zm0-1.6c1.787 0 3.3-.62 4.54-1.86C13.78 11.3 14.4 9.787 14.4 8s-.62-3.3-1.86-4.54C11.3 2.22 9.787 1.6 8 1.6s-3.3.62-4.54 1.86C2.22 4.7 1.6 6.213 1.6 8s.62 3.3 1.86 4.54C4.7 13.78 6.213 14.4 8 14.4z"/></symbol>
<symbol id="close" viewBox="0 0 10 10"><path fill="currentColor" stroke="none" d="M5 6.495L1.83 9.674c-.201.2-.456.299-.766.299s-.564-.1-.765-.3A1.03 1.03 0 0 1 0 8.914c0-.308.1-.562.299-.76l3.18-3.18L.299 1.83A1.04 1.04 0 0 1 0 1.064C0 .754.1.5.299.3c.2-.2.453-.299.76-.299.309 0 .562.1.762.299L5 3.479 8.143.298C8.344.099 8.6 0 8.91 0s.564.1.765.299c.217.217.326.476.326.775a.97.97 0 0 1-.326.747l-3.18 3.152 3.18 3.17c.2.201.299.456.299.766s-.1.564-.3.765A1.057 1.057 0 0 1 8.9 10a.974.974 0 0 1-.748-.326L5 6.494z"/></symbol>
<symbol id="down" viewBox="0 0 12 7"><path fill="currentColor" stroke="none" d="M6 7c-.144 0-.278-.022-.404-.066a.933.933 0 0 1-.35-.228L.297 1.79A1.01 1.01 0 0 1 0 1.042C0 .739.099.49.296.294.493.098.744 0 1.049 0s.556.098.754.294L6 4.462 10.197.294c.198-.196.449-.294.754-.294s.556.098.753.294c.197.196.296.445.296.748s-.099.552-.296.748l-4.95 4.916a.95.95 0 0 1-.35.228C6.278 6.979 6.144 7 6 7z"/></symbol>
<symbol id="up" viewBox="0 0 12 7"><path fill="currentColor" stroke="none" d="M6 2.555L1.803 6.707A1.026 1.026 0 0 1 1.049 7c-.305 0-.556-.098-.753-.293A1.004 1.004 0 0 1 0 5.962c0-.302.099-.55.296-.745L5.246.319C5.463.106 5.714 0 6 0s.538.106.753.32l4.951 4.897c.197.195.296.443.296.745A1.004 1.004 0 0 1 10.95 7a1.03 1.03 0 0 1-.753-.293L6 2.555z"/></symbol>
<symbol id="right" viewBox="0 0 7 12"><path fill="currentColor" stroke="none" d="M4.462 6L.294 1.803A1.024 1.024 0 0 1 0 1.049C0 .744.098.493.294.296A1.01 1.01 0 0 1 1.042 0c.303 0 .552.099.748.296l4.916 4.95a.95.95 0 0 1 .228.35c.045.126.067.26.066.404 0 .144-.023.278-.066.404a.916.916 0 0 1-.228.35l-4.916 4.95a1.01 1.01 0 0 1-.748.296 1.01 1.01 0 0 1-.748-.296A1.024 1.024 0 0 1 0 10.951c0-.305.098-.556.294-.754L4.462 6z"/></symbol>
<symbol id="left" viewBox="0 0 7 12"><path fill="currentColor" stroke="none" d="M2.538 6l4.168 4.197c.196.198.294.449.294.754s-.098.556-.294.753a1.01 1.01 0 0 1-.748.296 1.01 1.01 0 0 1-.748-.296L.294 6.754a.939.939 0 0 1-.227-.35 1.226 1.226 0 0 1 0-.808.975.975 0 0 1 .227-.35L5.21.297A1.01 1.01 0 0 1 5.958 0c.303 0 .552.099.748.296.196.197.294.448.294.753s-.098.556-.294.754L2.538 6z"/></symbol>
<symbol id="calendar" viewBox="0 0 18 20"><path fill="currentColor" stroke="none" d="M2 20c-.55 0-1.02-.196-1.412-.587A1.93 1.93 0 0 1 0 18V4c0-.55.196-1.02.588-1.412A1.93 1.93 0 0 1 2 2h1V0h2v2h8V0h2v2h1c.55 0 1.021.196 1.413.588.392.392.588.863.587 1.412v14a1.93 1.93 0 0 1-.587 1.413A1.92 1.92 0 0 1 16 20H2zm0-2h14V8H2v10zM2 6h14V4H2v2zm7 6a.965.965 0 0 1-.712-.288A.972.972 0 0 1 8 11c0-.283.095-.52.288-.712A.97.97 0 0 1 9 10c.282 0 .52.096.713.288.193.192.289.43.287.712a.986.986 0 0 1-.288.713A.952.952 0 0 1 9 12zm-4 0a.965.965 0 0 1-.712-.288A.972.972 0 0 1 4 11c0-.283.095-.52.288-.712A.97.97 0 0 1 5 10c.282 0 .52.096.713.288.193.192.289.43.287.712a.986.986 0 0 1-.288.713A.952.952 0 0 1 5 12zm8 0a.965.965 0 0 1-.712-.288A.973.973 0 0 1 12 11c0-.283.095-.52.288-.712A.97.97 0 0 1 13 10c.282 0 .52.096.713.288.193.192.289.43.287.712a.986.986 0 0 1-.288.713A.952.952 0 0 1 13 12zm-4 4a.965.965 0 0 1-.712-.288A.972.972 0 0 1 8 15c0-.283.095-.52.288-.712A.97.97 0 0 1 9 14c.282 0 .52.096.713.288.193.192.289.43.287.712a.986.986 0 0 1-.288.713A.952.952 0 0 1 9 16zm-4 0a.965.965 0 0 1-.712-.288A.972.972 0 0 1 4 15c0-.283.095-.52.288-.712A.97.97 0 0 1 5 14c.282 0 .52.096.713.288.193.192.289.43.287.712a.986.986 0 0 1-.288.713A.952.952 0 0 1 5 16zm8 0a.965.965 0 0 1-.712-.288A.973.973 0 0 1 12 15c0-.283.095-.52.288-.712A.97.97 0 0 1 13 14c.282 0 .52.096.713.288.193.192.289.43.287.712a.986.986 0 0 1-.288.713A.952.952 0 0 1 13 16z"/></symbol>
<symbol id="github" viewBox="0 0 20 20"><path fill="currentColor" stroke="none" d="M10 0a9.79 9.79 0 0 0-3.827.78A9.988 9.988 0 0 0 2.93 3.002 10.379 10.379 0 0 0 0 10.248c0 4.53 2.87 8.373 6.84 9.736.5.082.66-.236.66-.512V17.74c-2.77.615-3.36-1.373-3.36-1.373-.46-1.19-1.11-1.507-1.11-1.507-.91-.635.07-.615.07-.615 1 .072 1.53 1.056 1.53 1.056.87 1.557 2.34 1.096 2.91.85.09-.666.35-1.117.63-1.373-2.22-.256-4.55-1.138-4.55-5.042 0-1.138.38-2.05 1.03-2.777-.1-.257-.45-1.322.1-2.706 0 0 .84-.277 2.75 1.045A9.208 9.208 0 0 1 10 4.96c.85 0 1.71.113 2.5.338 1.91-1.322 2.75-1.045 2.75-1.045.55 1.384.2 2.45.1 2.706.65.727 1.03 1.64 1.03 2.777 0 3.915-2.34 4.776-4.57 5.032.36.317.69.943.69 1.896v2.808c0 .276.16.604.67.512 3.97-1.373 6.83-5.206 6.83-9.736a10.47 10.47 0 0 0-.761-3.922 10.27 10.27 0 0 0-2.168-3.324A9.987 9.987 0 0 0 13.827.78 9.79 9.79 0 0 0 10 0z"/></symbol>
<symbol id="facebook" viewBox="0 0 20 20"><path fill="currentColor" stroke="none" d="M20 10.025C20 4.491 15.52 0 10 0S0 4.491 0 10.025a10.03 10.03 0 0 0 8 9.825v-6.817H6v-3.008h2V7.52a3.508 3.508 0 0 1 3.5-3.509H14v3.008h-2c-.55 0-1 .45-1 1.002v2.005h3v3.008h-3V20c5.05-.501 9-4.772 9-9.975z"/></symbol>
<symbol id="instagram" viewBox="0 0 20 20"><path fill="currentColor" stroke="none" d="M10.05 0a10 10 0 1 0-.1 20 10 10 0 0 0 .1-20zm6.073 12.702a3.39 3.39 0 0 1-3.41 3.411H7.39a3.391 3.391 0 0 1-3.41-3.41V7.378a3.39 3.39 0 0 1 3.41-3.41h5.324a3.39 3.39 0 0 1 3.41 3.41v5.324z"/><path fill="currentColor" stroke="none" d="M11.342 10.203a1.333 1.333 0 1 1-1.3-1.359 1.35 1.35 0 0 1 1.3 1.359z"/><path fill="currentColor" stroke="none" d="M12.303 6.028H7.782a1.687 1.687 0 0 0-1.687 1.686v4.623a1.686 1.686 0 0 0 1.687 1.686h4.52a1.686 1.686 0 0 0 1.687-1.686V7.723a1.687 1.687 0 0 0-1.687-1.695zm-2.261 6.435a2.252 2.252 0 1 1 2.201-2.252 2.223 2.223 0 0 1-2.201 2.252zm2.446-4.504a.414.414 0 0 1-.413-.421.422.422 0 1 1 .843 0 .412.412 0 0 1-.464.421h.034z"/></symbol>
</defs>
</svg>